<mxfile host="app.diagrams.net" modified="2023-05-02T09:20:59.603Z" agent="Mozilla/5.0 (Windows NT 10.0; Win64; x64; rv:109.0) Gecko/20100101 Firefox/112.0" etag="eQrDx3u-fuWPF0HAgBpo" version="21.2.1" type="device">
  <diagram name="Page-1" id="58cdce13-f638-feb5-8d6f-7d28b1aa9fa0">
    <mxGraphModel dx="1434" dy="750" grid="1" gridSize="10" guides="1" tooltips="1" connect="1" arrows="1" fold="1" page="1" pageScale="1" pageWidth="1100" pageHeight="850" background="none" math="0" shadow="0">
      <root>
        <mxCell id="0" />
        <mxCell id="1" parent="0" />
        <mxCell id="_RIdNQpKpIPFGBzSEn9j-18" value="" style="shape=folder;fontStyle=1;spacingTop=10;tabWidth=40;tabHeight=14;tabPosition=left;html=1;whiteSpace=wrap;movable=1;resizable=1;rotatable=1;deletable=1;editable=1;locked=0;connectable=1;" parent="1" vertex="1">
          <mxGeometry x="30" y="380" width="1250" height="700" as="geometry" />
        </mxCell>
        <mxCell id="YhBXY4sOzTCuOieTcm3O-47" value="" style="shape=folder;fontStyle=1;spacingTop=10;tabWidth=65;tabHeight=20;tabPosition=left;html=1;whiteSpace=wrap;" vertex="1" parent="1">
          <mxGeometry x="390" y="473.23" width="170" height="106.77" as="geometry" />
        </mxCell>
        <mxCell id="YhBXY4sOzTCuOieTcm3O-38" value="" style="shape=folder;fontStyle=1;spacingTop=10;tabWidth=65;tabHeight=20;tabPosition=left;html=1;whiteSpace=wrap;" vertex="1" parent="1">
          <mxGeometry x="680" y="410" width="590" height="310" as="geometry" />
        </mxCell>
        <mxCell id="YhBXY4sOzTCuOieTcm3O-34" value="" style="shape=folder;fontStyle=1;spacingTop=10;tabWidth=74;tabHeight=20;tabPosition=left;html=1;whiteSpace=wrap;" vertex="1" parent="1">
          <mxGeometry x="46" y="930" width="544" height="140" as="geometry" />
        </mxCell>
        <mxCell id="YhBXY4sOzTCuOieTcm3O-35" value="&lt;div&gt;enemies&lt;/div&gt;" style="text;html=1;strokeColor=none;fillColor=none;align=center;verticalAlign=middle;whiteSpace=wrap;rounded=0;" vertex="1" parent="1">
          <mxGeometry x="52" y="903.3500000000001" width="47.83" height="12.29" as="geometry" />
        </mxCell>
        <mxCell id="YhBXY4sOzTCuOieTcm3O-7" value="" style="shape=folder;fontStyle=1;spacingTop=10;tabWidth=65;tabHeight=20;tabPosition=left;html=1;whiteSpace=wrap;" vertex="1" parent="1">
          <mxGeometry x="40.86" y="603.45" width="559.14" height="316.55" as="geometry" />
        </mxCell>
        <mxCell id="YhBXY4sOzTCuOieTcm3O-9" value="" style="shape=folder;fontStyle=1;spacingTop=10;tabWidth=65;tabHeight=20;tabPosition=left;html=1;whiteSpace=wrap;" vertex="1" parent="1">
          <mxGeometry x="50.75" y="632.82" width="529.25" height="280.96" as="geometry" />
        </mxCell>
        <mxCell id="YhBXY4sOzTCuOieTcm3O-27" value="" style="shape=folder;fontStyle=1;spacingTop=10;tabWidth=88;tabHeight=20;tabPosition=left;html=1;whiteSpace=wrap;" vertex="1" parent="1">
          <mxGeometry x="430" y="740" width="130" height="165.76" as="geometry" />
        </mxCell>
        <mxCell id="YhBXY4sOzTCuOieTcm3O-25" value="" style="shape=folder;fontStyle=1;spacingTop=10;tabWidth=90;tabHeight=24;tabPosition=left;html=1;whiteSpace=wrap;" vertex="1" parent="1">
          <mxGeometry x="230" y="735.76" width="170" height="170" as="geometry" />
        </mxCell>
        <mxCell id="YhBXY4sOzTCuOieTcm3O-1" value="" style="shape=folder;fontStyle=1;spacingTop=10;tabWidth=65;tabHeight=20;tabPosition=left;html=1;whiteSpace=wrap;" vertex="1" parent="1">
          <mxGeometry x="35.66" y="398.08" width="194.34" height="191.92" as="geometry" />
        </mxCell>
        <mxCell id="YhBXY4sOzTCuOieTcm3O-4" value="" style="shape=folder;fontStyle=1;spacingTop=10;tabWidth=65;tabHeight=20;tabPosition=left;html=1;whiteSpace=wrap;" vertex="1" parent="1">
          <mxGeometry x="41.49" y="421.97" width="178.51" height="158.03" as="geometry" />
        </mxCell>
        <mxCell id="YhBXY4sOzTCuOieTcm3O-5" value="weapons" style="text;html=1;strokeColor=none;fillColor=none;align=center;verticalAlign=middle;whiteSpace=wrap;rounded=0;" vertex="1" parent="1">
          <mxGeometry x="46" y="425.75" width="46" height="12.29" as="geometry" />
        </mxCell>
        <mxCell id="YhBXY4sOzTCuOieTcm3O-2" value="items" style="text;html=1;strokeColor=none;fillColor=none;align=center;verticalAlign=middle;whiteSpace=wrap;rounded=0;" vertex="1" parent="1">
          <mxGeometry x="32.17" y="401.86" width="47.83" height="12.29" as="geometry" />
        </mxCell>
        <mxCell id="_RIdNQpKpIPFGBzSEn9j-12" value="" style="shape=folder;fontStyle=1;spacingTop=10;tabWidth=50;tabHeight=20;tabPosition=left;html=1;whiteSpace=wrap;" parent="1" vertex="1">
          <mxGeometry x="30" y="200" width="1080" height="170" as="geometry" />
        </mxCell>
        <mxCell id="xI0LkP_j06gbxVso2cwU-1" value="" style="shape=folder;fontStyle=1;spacingTop=10;tabWidth=65;tabHeight=20;tabPosition=left;html=1;whiteSpace=wrap;" parent="1" vertex="1">
          <mxGeometry x="870" y="245.03" width="200" height="114.97" as="geometry" />
        </mxCell>
        <mxCell id="_RIdNQpKpIPFGBzSEn9j-19" value="&lt;div&gt;game&lt;br&gt;&lt;/div&gt;" style="text;html=1;strokeColor=none;fillColor=none;align=center;verticalAlign=middle;whiteSpace=wrap;rounded=0;" parent="1" vertex="1">
          <mxGeometry x="30" y="376.94000000000005" width="38" height="15.84" as="geometry" />
        </mxCell>
        <mxCell id="_RIdNQpKpIPFGBzSEn9j-15" value="&lt;blockquote&gt;«interface»&lt;br&gt;&lt;div&gt;&lt;b&gt;Behaviour&lt;/b&gt;&lt;/div&gt;&lt;/blockquote&gt;" style="html=1;whiteSpace=wrap;" parent="1" vertex="1">
          <mxGeometry x="417" y="514.24" width="120" height="49" as="geometry" />
        </mxCell>
        <mxCell id="YhBXY4sOzTCuOieTcm3O-43" style="edgeStyle=orthogonalEdgeStyle;rounded=0;orthogonalLoop=1;jettySize=auto;html=1;exitX=1;exitY=0.5;exitDx=0;exitDy=0;entryX=0;entryY=0.5;entryDx=0;entryDy=0;endSize=12;endArrow=open;endFill=0;dashed=1;fillColor=#f8cecc;strokeColor=#b85450;" edge="1" parent="1" source="_RIdNQpKpIPFGBzSEn9j-21" target="YhBXY4sOzTCuOieTcm3O-41">
          <mxGeometry relative="1" as="geometry">
            <Array as="points">
              <mxPoint x="660" y="680" />
              <mxPoint x="660" y="680" />
            </Array>
          </mxGeometry>
        </mxCell>
        <mxCell id="_RIdNQpKpIPFGBzSEn9j-21" value="&lt;p style=&quot;margin:0px;margin-top:4px;text-align:center;&quot;&gt;&lt;b&gt;&amp;lt;&amp;lt;abstract&amp;gt;&amp;gt;&lt;/b&gt;&lt;/p&gt;&lt;p style=&quot;margin:0px;margin-top:4px;text-align:center;&quot;&gt;&lt;b&gt;Enemy&lt;br&gt;&lt;/b&gt;&lt;/p&gt;&lt;hr size=&quot;1&quot;&gt;" style="verticalAlign=top;align=left;overflow=fill;fontSize=12;fontFamily=Helvetica;html=1;whiteSpace=wrap;" parent="1" vertex="1">
          <mxGeometry x="252.1" y="660" width="129.8" height="40" as="geometry" />
        </mxCell>
        <mxCell id="_RIdNQpKpIPFGBzSEn9j-24" value="" style="endArrow=open;endFill=1;endSize=12;html=1;rounded=0;entryX=0;entryY=0.5;entryDx=0;entryDy=0;exitX=0.75;exitY=0;exitDx=0;exitDy=0;edgeStyle=orthogonalEdgeStyle;" parent="1" source="_RIdNQpKpIPFGBzSEn9j-21" target="_RIdNQpKpIPFGBzSEn9j-15" edge="1">
          <mxGeometry width="160" relative="1" as="geometry">
            <mxPoint x="269.9" y="525.04" as="sourcePoint" />
            <mxPoint x="429.9" y="525.04" as="targetPoint" />
          </mxGeometry>
        </mxCell>
        <mxCell id="_RIdNQpKpIPFGBzSEn9j-25" value="1" style="text;html=1;strokeColor=none;fillColor=none;align=center;verticalAlign=middle;whiteSpace=wrap;rounded=0;" parent="1" vertex="1">
          <mxGeometry x="310" y="630" width="60" height="30" as="geometry" />
        </mxCell>
        <mxCell id="_RIdNQpKpIPFGBzSEn9j-26" value="*" style="text;html=1;strokeColor=none;fillColor=none;align=center;verticalAlign=middle;whiteSpace=wrap;rounded=0;" parent="1" vertex="1">
          <mxGeometry x="370" y="542.0400000000001" width="60" height="30" as="geometry" />
        </mxCell>
        <mxCell id="_RIdNQpKpIPFGBzSEn9j-27" value="acts" style="text;html=1;strokeColor=none;fillColor=none;align=center;verticalAlign=middle;whiteSpace=wrap;rounded=0;" parent="1" vertex="1">
          <mxGeometry x="340" y="538.09" width="60" height="30" as="geometry" />
        </mxCell>
        <mxCell id="_RIdNQpKpIPFGBzSEn9j-30" value="&lt;p style=&quot;margin:0px;margin-top:4px;text-align:center;&quot;&gt;&lt;b&gt;LoneWolf&lt;/b&gt;&lt;/p&gt;&lt;hr size=&quot;1&quot;&gt;&lt;div&gt;-&lt;br&gt;&lt;/div&gt;" style="verticalAlign=top;align=left;overflow=fill;fontSize=12;fontFamily=Helvetica;html=1;whiteSpace=wrap;" parent="1" vertex="1">
          <mxGeometry x="458.7" y="858.69" width="77" height="31.32" as="geometry" />
        </mxCell>
        <mxCell id="_RIdNQpKpIPFGBzSEn9j-3" value="&lt;p style=&quot;margin:0px;margin-top:4px;text-align:center;&quot;&gt;&lt;b&gt;HeavySkeletalSwordsman&lt;br&gt;&lt;/b&gt;&lt;/p&gt;&lt;hr size=&quot;1&quot;&gt;&lt;div&gt;&lt;br&gt;&lt;/div&gt;" style="verticalAlign=top;align=left;overflow=fill;fontSize=12;fontFamily=Helvetica;html=1;whiteSpace=wrap;" parent="1" vertex="1">
          <mxGeometry x="237" y="858.6899999999999" width="160" height="31.32" as="geometry" />
        </mxCell>
        <mxCell id="_RIdNQpKpIPFGBzSEn9j-5" value="" style="endArrow=block;endSize=12;endFill=0;html=1;rounded=0;exitX=0.5;exitY=0;exitDx=0;exitDy=0;entryX=0.5;entryY=1;entryDx=0;entryDy=0;" parent="1" source="EVIfJQRESA6GnYVss3oP-20" target="_RIdNQpKpIPFGBzSEn9j-21" edge="1">
          <mxGeometry width="160" relative="1" as="geometry">
            <mxPoint x="317.20000000000005" y="597" as="sourcePoint" />
            <mxPoint x="507" y="490" as="targetPoint" />
          </mxGeometry>
        </mxCell>
        <mxCell id="_RIdNQpKpIPFGBzSEn9j-91" value="1" style="text;html=1;strokeColor=none;fillColor=none;align=center;verticalAlign=middle;whiteSpace=wrap;rounded=0;fontColor=#B85450;" parent="1" vertex="1">
          <mxGeometry x="262" y="846" width="13" height="8.69" as="geometry" />
        </mxCell>
        <mxCell id="_RIdNQpKpIPFGBzSEn9j-94" value="wields" style="text;html=1;align=center;verticalAlign=middle;whiteSpace=wrap;rounded=0;fontColor=#B85450;" parent="1" vertex="1">
          <mxGeometry x="159.1" y="690" width="43" height="10" as="geometry" />
        </mxCell>
        <mxCell id="_RIdNQpKpIPFGBzSEn9j-43" value="&lt;p style=&quot;margin:0px;margin-top:4px;text-align:center;&quot;&gt;&lt;b&gt;Water&lt;/b&gt;&lt;br&gt;&lt;/p&gt;&lt;hr size=&quot;1&quot;&gt;&lt;div&gt;&lt;br&gt;&lt;/div&gt;" style="verticalAlign=top;align=left;overflow=fill;fontSize=12;fontFamily=Helvetica;html=1;whiteSpace=wrap;" parent="1" vertex="1">
          <mxGeometry x="100.7" y="970" width="73" height="30" as="geometry" />
        </mxCell>
        <mxCell id="_RIdNQpKpIPFGBzSEn9j-108" style="edgeStyle=orthogonalEdgeStyle;rounded=0;orthogonalLoop=1;jettySize=auto;html=1;exitX=0.5;exitY=0;exitDx=0;exitDy=0;entryX=0.5;entryY=1;entryDx=0;entryDy=0;endArrow=open;endFill=0;endSize=12;dashed=1;" parent="1" source="_RIdNQpKpIPFGBzSEn9j-44" target="_RIdNQpKpIPFGBzSEn9j-30" edge="1">
          <mxGeometry relative="1" as="geometry" />
        </mxCell>
        <mxCell id="_RIdNQpKpIPFGBzSEn9j-44" value="&lt;p style=&quot;margin:0px;margin-top:4px;text-align:center;&quot;&gt;&lt;b&gt;Wind&lt;/b&gt;&lt;br&gt;&lt;/p&gt;&lt;hr size=&quot;1&quot;&gt;&lt;div&gt;&lt;br&gt;&lt;/div&gt;" style="verticalAlign=top;align=left;overflow=fill;fontSize=12;fontFamily=Helvetica;html=1;whiteSpace=wrap;" parent="1" vertex="1">
          <mxGeometry x="462.2" y="970" width="70" height="30" as="geometry" />
        </mxCell>
        <mxCell id="_RIdNQpKpIPFGBzSEn9j-45" value="&lt;p style=&quot;margin:0px;margin-top:4px;text-align:center;&quot;&gt;&lt;b&gt;Graveyard&lt;/b&gt;&lt;br&gt;&lt;/p&gt;&lt;hr size=&quot;1&quot;&gt;&lt;div&gt;&lt;br&gt;&lt;/div&gt;" style="verticalAlign=top;align=left;overflow=fill;fontSize=12;fontFamily=Helvetica;html=1;whiteSpace=wrap;" parent="1" vertex="1">
          <mxGeometry x="270.8" y="970" width="92.8" height="30" as="geometry" />
        </mxCell>
        <mxCell id="_RIdNQpKpIPFGBzSEn9j-79" value="" style="group" parent="1" vertex="1" connectable="0">
          <mxGeometry x="227" y="230" width="180" height="115" as="geometry" />
        </mxCell>
        <mxCell id="_RIdNQpKpIPFGBzSEn9j-76" value="" style="shape=folder;fontStyle=1;spacingTop=10;tabWidth=65;tabHeight=20;tabPosition=left;html=1;whiteSpace=wrap;" parent="_RIdNQpKpIPFGBzSEn9j-79" vertex="1">
          <mxGeometry y="5" width="180" height="110" as="geometry" />
        </mxCell>
        <mxCell id="_RIdNQpKpIPFGBzSEn9j-77" value="actors" style="text;html=1;strokeColor=none;fillColor=none;align=center;verticalAlign=middle;whiteSpace=wrap;rounded=0;" parent="_RIdNQpKpIPFGBzSEn9j-79" vertex="1">
          <mxGeometry x="4" width="60" height="30" as="geometry" />
        </mxCell>
        <mxCell id="_RIdNQpKpIPFGBzSEn9j-4" value="&lt;p style=&quot;margin:0px;margin-top:4px;text-align:center;&quot;&gt;&lt;b&gt;&amp;lt;&amp;lt;abstract&amp;gt;&amp;gt;&lt;/b&gt;&lt;/p&gt;&lt;p style=&quot;margin:0px;margin-top:4px;text-align:center;&quot;&gt;&lt;b&gt;Actor&lt;br&gt;&lt;/b&gt;&lt;/p&gt;&lt;hr size=&quot;1&quot;&gt;" style="verticalAlign=top;align=left;overflow=fill;fontSize=12;fontFamily=Helvetica;html=1;whiteSpace=wrap;" parent="_RIdNQpKpIPFGBzSEn9j-79" vertex="1">
          <mxGeometry x="20" y="43" width="140" height="60" as="geometry" />
        </mxCell>
        <mxCell id="_RIdNQpKpIPFGBzSEn9j-20" value="" style="endArrow=block;endSize=12;endFill=0;html=1;rounded=0;exitX=0.5;exitY=0;exitDx=0;exitDy=0;entryX=0.5;entryY=1;entryDx=0;entryDy=0;" parent="1" source="_RIdNQpKpIPFGBzSEn9j-21" target="_RIdNQpKpIPFGBzSEn9j-4" edge="1">
          <mxGeometry width="160" relative="1" as="geometry">
            <mxPoint x="506.75" y="457" as="sourcePoint" />
            <mxPoint x="507" y="380" as="targetPoint" />
          </mxGeometry>
        </mxCell>
        <mxCell id="_RIdNQpKpIPFGBzSEn9j-95" value="" style="endArrow=open;endSize=12;endFill=0;html=1;rounded=0;exitX=0.5;exitY=0;exitDx=0;exitDy=0;entryX=0.5;entryY=1;entryDx=0;entryDy=0;dashed=1;" parent="1" source="_RIdNQpKpIPFGBzSEn9j-45" target="_RIdNQpKpIPFGBzSEn9j-3" edge="1">
          <mxGeometry width="160" relative="1" as="geometry">
            <mxPoint x="312.8" y="861.91" as="sourcePoint" />
            <mxPoint x="312.8" y="780.91" as="targetPoint" />
          </mxGeometry>
        </mxCell>
        <mxCell id="_RIdNQpKpIPFGBzSEn9j-119" value="&lt;p style=&quot;margin:0px;margin-top:4px;text-align:center;&quot;&gt;&lt;b&gt;&amp;lt;&amp;lt;abstract&amp;gt;&amp;gt;&lt;/b&gt;&lt;/p&gt;&lt;p style=&quot;margin:0px;margin-top:4px;text-align:center;&quot;&gt;&lt;b&gt;SpawningGround&lt;br&gt;&lt;/b&gt;&lt;/p&gt;&lt;hr size=&quot;1&quot;&gt;&lt;div&gt;&lt;br&gt;&lt;/div&gt;" style="verticalAlign=top;align=left;overflow=fill;fontSize=12;fontFamily=Helvetica;html=1;whiteSpace=wrap;" parent="1" vertex="1">
          <mxGeometry x="237" y="1020.09" width="160" height="39.91" as="geometry" />
        </mxCell>
        <mxCell id="_RIdNQpKpIPFGBzSEn9j-69" value="`" style="shape=folder;fontStyle=1;spacingTop=10;tabWidth=65;tabHeight=20;tabPosition=left;html=1;whiteSpace=wrap;" parent="1" vertex="1">
          <mxGeometry x="40" y="240" width="180" height="110" as="geometry" />
        </mxCell>
        <mxCell id="_RIdNQpKpIPFGBzSEn9j-70" value="weapons&lt;span style=&quot;white-space: pre;&quot;&gt; &lt;/span&gt;" style="text;html=1;strokeColor=none;fillColor=none;align=center;verticalAlign=middle;whiteSpace=wrap;rounded=0;" parent="1" vertex="1">
          <mxGeometry x="38.34" y="230.00000000000003" width="60" height="44.21052631578947" as="geometry" />
        </mxCell>
        <mxCell id="_RIdNQpKpIPFGBzSEn9j-72" value="&lt;p style=&quot;margin:0px;margin-top:4px;text-align:center;&quot;&gt;&lt;b&gt;&amp;lt;&amp;lt;abstract&amp;gt;&amp;gt;&lt;/b&gt;&lt;/p&gt;&lt;p style=&quot;margin:0px;margin-top:4px;text-align:center;&quot;&gt;&lt;b&gt;WeaponItem&lt;/b&gt;&lt;br&gt;&lt;/p&gt;&lt;hr size=&quot;1&quot;&gt;" style="verticalAlign=top;align=left;overflow=fill;fontSize=12;fontFamily=Helvetica;html=1;whiteSpace=wrap;" parent="1" vertex="1">
          <mxGeometry x="60" y="270" width="140" height="56" as="geometry" />
        </mxCell>
        <mxCell id="_RIdNQpKpIPFGBzSEn9j-88" style="rounded=0;orthogonalLoop=1;jettySize=auto;html=1;exitX=0.5;exitY=0;exitDx=0;exitDy=0;entryX=0.5;entryY=1;entryDx=0;entryDy=0;endArrow=block;endFill=0;endSize=12;" parent="1" source="_RIdNQpKpIPFGBzSEn9j-86" target="EVIfJQRESA6GnYVss3oP-1" edge="1">
          <mxGeometry relative="1" as="geometry" />
        </mxCell>
        <mxCell id="_RIdNQpKpIPFGBzSEn9j-86" value="&lt;p style=&quot;margin:0px;margin-top:4px;text-align:center;&quot;&gt;&lt;b&gt;Grossmesser&lt;/b&gt;&lt;br&gt;&lt;/p&gt;&lt;hr size=&quot;1&quot;&gt;&lt;div&gt;&lt;br&gt;&lt;/div&gt;" style="verticalAlign=top;align=left;overflow=fill;fontSize=12;fontFamily=Helvetica;html=1;whiteSpace=wrap;" parent="1" vertex="1">
          <mxGeometry x="50.75" y="520" width="160" height="37.49" as="geometry" />
        </mxCell>
        <mxCell id="_RIdNQpKpIPFGBzSEn9j-93" value="1" style="text;html=1;strokeColor=none;fillColor=none;align=center;verticalAlign=middle;whiteSpace=wrap;rounded=0;fontColor=#B85450;" parent="1" vertex="1">
          <mxGeometry x="86" y="555.64" width="60" height="30" as="geometry" />
        </mxCell>
        <mxCell id="_RIdNQpKpIPFGBzSEn9j-142" value="&lt;p style=&quot;margin:0px;margin-top:4px;text-align:center;&quot;&gt;&lt;b&gt;&amp;lt;&amp;lt;abstract&amp;gt;&amp;gt;&lt;/b&gt;&lt;/p&gt;&lt;p style=&quot;margin:0px;margin-top:4px;text-align:center;&quot;&gt;&lt;b&gt;Action&lt;br&gt;&lt;/b&gt;&lt;/p&gt;&lt;hr size=&quot;1&quot;&gt;" style="verticalAlign=top;align=left;overflow=fill;fontSize=12;fontFamily=Helvetica;html=1;whiteSpace=wrap;" parent="1" vertex="1">
          <mxGeometry x="901" y="279.99999999999994" width="140" height="60" as="geometry" />
        </mxCell>
        <mxCell id="_RIdNQpKpIPFGBzSEn9j-146" style="rounded=0;orthogonalLoop=1;jettySize=auto;html=1;exitX=0.73;exitY=1.011;exitDx=0;exitDy=0;elbow=vertical;endArrow=open;endFill=0;endSize=12;fillColor=#f8cecc;strokeColor=#b85450;dashed=1;edgeStyle=orthogonalEdgeStyle;entryX=0;entryY=0.25;entryDx=0;entryDy=0;exitPerimeter=0;" parent="1" source="EVIfJQRESA6GnYVss3oP-20" target="EVIfJQRESA6GnYVss3oP-7" edge="1">
          <mxGeometry relative="1" as="geometry">
            <mxPoint x="288" y="643" as="sourcePoint" />
            <mxPoint x="690" y="820" as="targetPoint" />
            <Array as="points">
              <mxPoint x="347" y="710" />
              <mxPoint x="720" y="710" />
              <mxPoint x="720" y="845" />
            </Array>
          </mxGeometry>
        </mxCell>
        <mxCell id="_RIdNQpKpIPFGBzSEn9j-13" value="&lt;div&gt;engine&lt;/div&gt;" style="text;html=1;strokeColor=none;fillColor=none;align=center;verticalAlign=middle;whiteSpace=wrap;rounded=0;" parent="1" vertex="1">
          <mxGeometry x="25.17" y="194" width="60" height="30.222222222222218" as="geometry" />
        </mxCell>
        <mxCell id="_RIdNQpKpIPFGBzSEn9j-82" value="" style="shape=folder;fontStyle=1;spacingTop=10;tabWidth=65;tabHeight=20;tabPosition=left;html=1;whiteSpace=wrap;" parent="1" vertex="1">
          <mxGeometry x="570" y="246.59259259259258" width="180" height="110.81481481481481" as="geometry" />
        </mxCell>
        <mxCell id="_RIdNQpKpIPFGBzSEn9j-83" value="positions" style="text;html=1;strokeColor=none;fillColor=none;align=center;verticalAlign=middle;whiteSpace=wrap;rounded=0;" parent="1" vertex="1">
          <mxGeometry x="574" y="241.55555555555554" width="60" height="30.222222222222218" as="geometry" />
        </mxCell>
        <mxCell id="_RIdNQpKpIPFGBzSEn9j-84" value="&lt;p style=&quot;margin:0px;margin-top:4px;text-align:center;&quot;&gt;&lt;b&gt;&amp;lt;&amp;lt;abstract&amp;gt;&amp;gt;&lt;/b&gt;&lt;/p&gt;&lt;p style=&quot;margin:0px;margin-top:4px;text-align:center;&quot;&gt;&lt;b&gt;Ground&lt;br&gt;&lt;/b&gt;&lt;/p&gt;&lt;hr size=&quot;1&quot;&gt;" style="verticalAlign=top;align=left;overflow=fill;fontSize=12;fontFamily=Helvetica;html=1;whiteSpace=wrap;" parent="1" vertex="1">
          <mxGeometry x="590" y="284.8740740740741" width="140" height="60.444444444444436" as="geometry" />
        </mxCell>
        <mxCell id="xI0LkP_j06gbxVso2cwU-3" value="actions" style="text;html=1;strokeColor=none;fillColor=none;align=center;verticalAlign=middle;whiteSpace=wrap;rounded=0;" parent="1" vertex="1">
          <mxGeometry x="870" y="241.67" width="60" height="30" as="geometry" />
        </mxCell>
        <mxCell id="bGjcSpvRI6NnkndHbZyz-2" value="" style="endArrow=block;endSize=12;endFill=0;html=1;rounded=0;exitX=0.5;exitY=1;exitDx=0;exitDy=0;entryX=0;entryY=0.5;entryDx=0;entryDy=0;edgeStyle=orthogonalEdgeStyle;" parent="1" source="_RIdNQpKpIPFGBzSEn9j-43" target="_RIdNQpKpIPFGBzSEn9j-119" edge="1">
          <mxGeometry width="160" relative="1" as="geometry">
            <mxPoint x="108" y="1101.5400000000002" as="sourcePoint" />
            <mxPoint x="107" y="937.54" as="targetPoint" />
          </mxGeometry>
        </mxCell>
        <mxCell id="bGjcSpvRI6NnkndHbZyz-4" value="" style="endArrow=block;endSize=12;endFill=0;html=1;rounded=0;exitX=0.5;exitY=1;exitDx=0;exitDy=0;entryX=1;entryY=0.5;entryDx=0;entryDy=0;edgeStyle=orthogonalEdgeStyle;" parent="1" source="_RIdNQpKpIPFGBzSEn9j-44" target="_RIdNQpKpIPFGBzSEn9j-119" edge="1">
          <mxGeometry width="160" relative="1" as="geometry">
            <mxPoint x="414.99" y="977.54" as="sourcePoint" />
            <mxPoint x="552.99" y="1067.5400000000002" as="targetPoint" />
          </mxGeometry>
        </mxCell>
        <mxCell id="bGjcSpvRI6NnkndHbZyz-5" value="" style="endArrow=block;endSize=12;endFill=0;html=1;rounded=0;exitX=0.5;exitY=1;exitDx=0;exitDy=0;entryX=0.5;entryY=0;entryDx=0;entryDy=0;edgeStyle=orthogonalEdgeStyle;" parent="1" source="_RIdNQpKpIPFGBzSEn9j-45" target="_RIdNQpKpIPFGBzSEn9j-119" edge="1">
          <mxGeometry width="160" relative="1" as="geometry">
            <mxPoint x="473" y="929.54" as="sourcePoint" />
            <mxPoint x="405" y="1020.54" as="targetPoint" />
          </mxGeometry>
        </mxCell>
        <mxCell id="_RIdNQpKpIPFGBzSEn9j-120" style="edgeStyle=orthogonalEdgeStyle;rounded=0;orthogonalLoop=1;jettySize=auto;html=1;exitX=1;exitY=0.75;exitDx=0;exitDy=0;entryX=0.5;entryY=1;entryDx=0;entryDy=0;endSize=12;endArrow=block;endFill=0;" parent="1" source="_RIdNQpKpIPFGBzSEn9j-119" target="_RIdNQpKpIPFGBzSEn9j-84" edge="1">
          <mxGeometry relative="1" as="geometry" />
        </mxCell>
        <mxCell id="EVIfJQRESA6GnYVss3oP-33" style="edgeStyle=orthogonalEdgeStyle;rounded=0;orthogonalLoop=1;jettySize=auto;html=1;exitX=0;exitY=0.75;exitDx=0;exitDy=0;entryX=1;entryY=0.5;entryDx=0;entryDy=0;dashed=1;endArrow=open;endFill=0;startSize=12;endSize=12;" parent="1" source="_6_Bct-VPP1b2jgnEAKt-7" target="EVIfJQRESA6GnYVss3oP-8" edge="1">
          <mxGeometry relative="1" as="geometry">
            <Array as="points">
              <mxPoint x="1090" y="483" />
              <mxPoint x="1090" y="680" />
              <mxPoint x="1000" y="680" />
            </Array>
          </mxGeometry>
        </mxCell>
        <mxCell id="_6_Bct-VPP1b2jgnEAKt-7" value="&lt;p style=&quot;margin:0px;margin-top:4px;text-align:center;&quot;&gt;&lt;b&gt;AttackAction&lt;br&gt;&lt;/b&gt;&lt;/p&gt;&lt;hr size=&quot;1&quot;&gt;" style="verticalAlign=top;align=left;overflow=fill;fontSize=12;fontFamily=Helvetica;html=1;whiteSpace=wrap;" parent="1" vertex="1">
          <mxGeometry x="1140" y="438.04" width="110" height="60" as="geometry" />
        </mxCell>
        <mxCell id="EVIfJQRESA6GnYVss3oP-39" style="edgeStyle=orthogonalEdgeStyle;rounded=0;orthogonalLoop=1;jettySize=auto;html=1;exitX=0.75;exitY=1;exitDx=0;exitDy=0;entryX=0;entryY=0.25;entryDx=0;entryDy=0;endSize=12;endArrow=open;endFill=0;dashed=1;fillColor=#e1d5e7;strokeColor=#9673a6;" parent="1" source="_6_Bct-VPP1b2jgnEAKt-10" target="EVIfJQRESA6GnYVss3oP-37" edge="1">
          <mxGeometry relative="1" as="geometry">
            <Array as="points">
              <mxPoint x="810" y="546" />
            </Array>
          </mxGeometry>
        </mxCell>
        <mxCell id="_6_Bct-VPP1b2jgnEAKt-10" value="&lt;p style=&quot;margin:0px;margin-top:4px;text-align:center;&quot;&gt;&lt;b&gt;PileOfBonesAction&lt;/b&gt;&lt;br&gt;&lt;/p&gt;&lt;hr size=&quot;1&quot;&gt;" style="verticalAlign=top;align=left;overflow=fill;fontSize=12;fontFamily=Helvetica;html=1;whiteSpace=wrap;" parent="1" vertex="1">
          <mxGeometry x="690" y="439" width="160" height="51" as="geometry" />
        </mxCell>
        <mxCell id="_6_Bct-VPP1b2jgnEAKt-15" value="&lt;p style=&quot;margin:0px;margin-top:4px;text-align:center;&quot;&gt;&lt;b&gt;AreaAttackAction&lt;/b&gt;&lt;br&gt;&lt;/p&gt;&lt;hr size=&quot;1&quot;&gt;" style="verticalAlign=top;align=left;overflow=fill;fontSize=12;fontFamily=Helvetica;html=1;whiteSpace=wrap;" parent="1" vertex="1">
          <mxGeometry x="1130" y="540" width="130" height="50" as="geometry" />
        </mxCell>
        <mxCell id="_6_Bct-VPP1b2jgnEAKt-16" style="rounded=0;orthogonalLoop=1;jettySize=auto;html=1;entryX=0.5;entryY=1;entryDx=0;entryDy=0;endArrow=block;endFill=0;endSize=12;exitX=0.5;exitY=0;exitDx=0;exitDy=0;" parent="1" source="_6_Bct-VPP1b2jgnEAKt-15" target="_6_Bct-VPP1b2jgnEAKt-7" edge="1">
          <mxGeometry relative="1" as="geometry">
            <mxPoint x="1172" y="633.11" as="sourcePoint" />
            <mxPoint x="1140" y="458.11" as="targetPoint" />
          </mxGeometry>
        </mxCell>
        <mxCell id="_6_Bct-VPP1b2jgnEAKt-32" style="edgeStyle=orthogonalEdgeStyle;rounded=0;orthogonalLoop=1;jettySize=auto;html=1;exitX=0;exitY=0.5;exitDx=0;exitDy=0;endSize=12;endArrow=block;endFill=0;entryX=1;entryY=0.5;entryDx=0;entryDy=0;" parent="1" source="_6_Bct-VPP1b2jgnEAKt-7" target="_RIdNQpKpIPFGBzSEn9j-142" edge="1">
          <mxGeometry relative="1" as="geometry">
            <mxPoint x="1100" y="400.86" as="sourcePoint" />
            <mxPoint x="865" y="274.86" as="targetPoint" />
            <Array as="points">
              <mxPoint x="1090" y="468" />
              <mxPoint x="1090" y="310" />
            </Array>
          </mxGeometry>
        </mxCell>
        <mxCell id="_6_Bct-VPP1b2jgnEAKt-33" style="edgeStyle=orthogonalEdgeStyle;rounded=0;orthogonalLoop=1;jettySize=auto;html=1;exitX=0.748;exitY=0.013;exitDx=0;exitDy=0;endArrow=block;endFill=0;endSize=12;exitPerimeter=0;entryX=0;entryY=0.5;entryDx=0;entryDy=0;fillColor=#e1d5e7;strokeColor=#9673a6;" parent="1" source="_6_Bct-VPP1b2jgnEAKt-10" target="_RIdNQpKpIPFGBzSEn9j-142" edge="1">
          <mxGeometry relative="1" as="geometry">
            <mxPoint x="860" y="498.51" as="sourcePoint" />
            <mxPoint x="910" y="350" as="targetPoint" />
            <Array as="points">
              <mxPoint x="810" y="310" />
            </Array>
          </mxGeometry>
        </mxCell>
        <mxCell id="EVIfJQRESA6GnYVss3oP-1" value="&lt;p style=&quot;margin:0px;margin-top:4px;text-align:center;&quot;&gt;&lt;b&gt;&amp;lt;&amp;lt;abstract&amp;gt;&amp;gt;&lt;/b&gt;&lt;/p&gt;&lt;p style=&quot;margin:0px;margin-top:4px;text-align:center;&quot;&gt;&lt;b&gt;CurvedSword&lt;/b&gt;&lt;br&gt;&lt;/p&gt;&lt;hr size=&quot;1&quot;&gt;" style="verticalAlign=top;align=left;overflow=fill;fontSize=12;fontFamily=Helvetica;html=1;whiteSpace=wrap;" parent="1" vertex="1">
          <mxGeometry x="50" y="446.75" width="160" height="43.25" as="geometry" />
        </mxCell>
        <mxCell id="EVIfJQRESA6GnYVss3oP-3" style="rounded=0;orthogonalLoop=1;jettySize=auto;html=1;exitX=0.5;exitY=0;exitDx=0;exitDy=0;endArrow=block;endFill=0;endSize=12;entryX=0.5;entryY=1;entryDx=0;entryDy=0;" parent="1" source="EVIfJQRESA6GnYVss3oP-1" target="_RIdNQpKpIPFGBzSEn9j-72" edge="1">
          <mxGeometry relative="1" as="geometry">
            <mxPoint x="140" y="509" as="sourcePoint" />
            <mxPoint x="130" y="330" as="targetPoint" />
          </mxGeometry>
        </mxCell>
        <mxCell id="EVIfJQRESA6GnYVss3oP-7" value="&lt;p style=&quot;margin:0px;margin-top:4px;text-align:center;&quot;&gt;&lt;b&gt;&amp;lt;&amp;lt;enumeration&amp;gt;&amp;gt;&lt;/b&gt;&lt;/p&gt;&lt;p style=&quot;margin:0px;margin-top:4px;text-align:center;&quot;&gt;&lt;b&gt;Status&lt;br&gt;&lt;/b&gt;&lt;/p&gt;&lt;hr size=&quot;1&quot;&gt;" style="verticalAlign=top;align=left;overflow=fill;fontSize=12;fontFamily=Helvetica;html=1;whiteSpace=wrap;" parent="1" vertex="1">
          <mxGeometry x="870" y="832.23" width="120" height="49.09" as="geometry" />
        </mxCell>
        <mxCell id="EVIfJQRESA6GnYVss3oP-10" style="edgeStyle=orthogonalEdgeStyle;rounded=0;orthogonalLoop=1;jettySize=auto;html=1;exitX=0.5;exitY=0;exitDx=0;exitDy=0;entryX=0.5;entryY=1;entryDx=0;entryDy=0;endArrow=open;endFill=0;endSize=12;dashed=1;" parent="1" source="EVIfJQRESA6GnYVss3oP-8" target="_6_Bct-VPP1b2jgnEAKt-10" edge="1">
          <mxGeometry relative="1" as="geometry">
            <Array as="points">
              <mxPoint x="930" y="610" />
              <mxPoint x="770" y="610" />
            </Array>
          </mxGeometry>
        </mxCell>
        <mxCell id="EVIfJQRESA6GnYVss3oP-8" value="&lt;p style=&quot;margin:0px;margin-top:4px;text-align:center;&quot;&gt;&lt;b&gt;DeathAction&lt;br&gt;&lt;/b&gt;&lt;/p&gt;&lt;hr size=&quot;1&quot;&gt;" style="verticalAlign=top;align=left;overflow=fill;fontSize=12;fontFamily=Helvetica;html=1;whiteSpace=wrap;" parent="1" vertex="1">
          <mxGeometry x="880" y="661.91" width="100" height="38.09" as="geometry" />
        </mxCell>
        <mxCell id="EVIfJQRESA6GnYVss3oP-9" style="rounded=0;orthogonalLoop=1;jettySize=auto;html=1;exitX=0.5;exitY=1;exitDx=0;exitDy=0;entryX=0.5;entryY=0;entryDx=0;entryDy=0;endSize=12;endArrow=open;endFill=0;dashed=1;edgeStyle=orthogonalEdgeStyle;" parent="1" source="EVIfJQRESA6GnYVss3oP-8" target="EVIfJQRESA6GnYVss3oP-7" edge="1">
          <mxGeometry relative="1" as="geometry">
            <mxPoint x="1070" y="845.87" as="sourcePoint" />
            <mxPoint x="1070" y="742.87" as="targetPoint" />
          </mxGeometry>
        </mxCell>
        <mxCell id="EVIfJQRESA6GnYVss3oP-16" value="" style="endArrow=block;endSize=12;endFill=0;html=1;rounded=0;exitX=0.5;exitY=0;exitDx=0;exitDy=0;entryX=0.5;entryY=1;entryDx=0;entryDy=0;" parent="1" source="_RIdNQpKpIPFGBzSEn9j-3" target="EVIfJQRESA6GnYVss3oP-20" edge="1">
          <mxGeometry width="160" relative="1" as="geometry">
            <mxPoint x="315" y="741" as="sourcePoint" />
            <mxPoint x="317.20000000000005" y="670" as="targetPoint" />
          </mxGeometry>
        </mxCell>
        <mxCell id="EVIfJQRESA6GnYVss3oP-38" style="edgeStyle=orthogonalEdgeStyle;rounded=0;orthogonalLoop=1;jettySize=auto;html=1;exitX=1;exitY=0.5;exitDx=0;exitDy=0;fillColor=#e1d5e7;strokeColor=#9673a6;endSize=12;endArrow=none;endFill=0;startSize=12;startArrow=block;startFill=0;entryX=0;entryY=0.75;entryDx=0;entryDy=0;" parent="1" source="EVIfJQRESA6GnYVss3oP-20" edge="1" target="EVIfJQRESA6GnYVss3oP-37">
          <mxGeometry relative="1" as="geometry">
            <mxPoint x="890" y="581" as="targetPoint" />
            <Array as="points">
              <mxPoint x="420" y="791" />
              <mxPoint x="420" y="830" />
              <mxPoint x="650" y="830" />
              <mxPoint x="650" y="569" />
              <mxPoint x="891" y="569" />
            </Array>
          </mxGeometry>
        </mxCell>
        <mxCell id="EVIfJQRESA6GnYVss3oP-20" value="&lt;p style=&quot;margin:0px;margin-top:4px;text-align:center;&quot;&gt;&lt;b&gt;&amp;lt;&amp;lt;abstract&amp;gt;&amp;gt;&lt;/b&gt;&lt;/p&gt;&lt;p style=&quot;margin:0px;margin-top:4px;text-align:center;&quot;&gt;&lt;b&gt;SkeletalEnemy&lt;br&gt;&lt;/b&gt;&lt;/p&gt;&lt;hr size=&quot;1&quot;&gt;" style="verticalAlign=top;align=left;overflow=fill;fontSize=12;fontFamily=Helvetica;html=1;whiteSpace=wrap;" parent="1" vertex="1">
          <mxGeometry x="252.3" y="770" width="129.8" height="42.53" as="geometry" />
        </mxCell>
        <mxCell id="EVIfJQRESA6GnYVss3oP-22" value="&lt;p style=&quot;margin:0px;margin-top:4px;text-align:center;&quot;&gt;&lt;b&gt;&amp;lt;&amp;lt;abstract&amp;gt;&amp;gt;&lt;/b&gt;&lt;/p&gt;&lt;p style=&quot;margin:0px;margin-top:4px;text-align:center;&quot;&gt;&lt;b&gt;CanineEnemy&lt;br&gt;&lt;/b&gt;&lt;/p&gt;&lt;hr size=&quot;1&quot;&gt;" style="verticalAlign=top;align=left;overflow=fill;fontSize=12;fontFamily=Helvetica;html=1;whiteSpace=wrap;" parent="1" vertex="1">
          <mxGeometry x="443.35" y="770" width="107.7" height="43.1" as="geometry" />
        </mxCell>
        <mxCell id="EVIfJQRESA6GnYVss3oP-29" value="" style="endArrow=block;endSize=12;endFill=0;html=1;rounded=0;exitX=0.5;exitY=0;exitDx=0;exitDy=0;entryX=0.5;entryY=1;entryDx=0;entryDy=0;" parent="1" source="_RIdNQpKpIPFGBzSEn9j-30" target="EVIfJQRESA6GnYVss3oP-22" edge="1">
          <mxGeometry width="160" relative="1" as="geometry">
            <mxPoint x="337" y="761" as="sourcePoint" />
            <mxPoint x="337" y="694" as="targetPoint" />
          </mxGeometry>
        </mxCell>
        <mxCell id="EVIfJQRESA6GnYVss3oP-41" style="edgeStyle=orthogonalEdgeStyle;rounded=0;orthogonalLoop=1;jettySize=auto;html=1;dashed=1;endArrow=open;endFill=0;endSize=12;fillColor=#e1d5e7;strokeColor=#9673a6;exitX=0.75;exitY=1;exitDx=0;exitDy=0;entryX=0.75;entryY=0;entryDx=0;entryDy=0;" parent="1" target="EVIfJQRESA6GnYVss3oP-7" edge="1" source="EVIfJQRESA6GnYVss3oP-37">
          <mxGeometry relative="1" as="geometry">
            <mxPoint x="970" y="600" as="sourcePoint" />
            <Array as="points">
              <mxPoint x="996" y="620" />
              <mxPoint x="1010" y="620" />
              <mxPoint x="1010" y="790" />
              <mxPoint x="960" y="790" />
            </Array>
            <mxPoint x="971" y="830" as="targetPoint" />
          </mxGeometry>
        </mxCell>
        <mxCell id="EVIfJQRESA6GnYVss3oP-45" style="edgeStyle=orthogonalEdgeStyle;rounded=0;orthogonalLoop=1;jettySize=auto;html=1;exitX=0.5;exitY=0;exitDx=0;exitDy=0;entryX=0.5;entryY=1;entryDx=0;entryDy=0;dashed=1;endArrow=open;endFill=0;endSize=12;" parent="1" source="EVIfJQRESA6GnYVss3oP-37" target="EVIfJQRESA6GnYVss3oP-43" edge="1">
          <mxGeometry relative="1" as="geometry">
            <Array as="points">
              <mxPoint x="971" y="534" />
            </Array>
          </mxGeometry>
        </mxCell>
        <mxCell id="EVIfJQRESA6GnYVss3oP-37" value="&lt;p style=&quot;margin:0px;margin-top:4px;text-align:center;&quot;&gt;&lt;b&gt;PileOfBones&lt;/b&gt;&lt;br&gt;&lt;/p&gt;&lt;hr size=&quot;1&quot;&gt;&lt;div&gt;&lt;br&gt;&lt;/div&gt;" style="verticalAlign=top;align=left;overflow=fill;fontSize=12;fontFamily=Helvetica;html=1;whiteSpace=wrap;" parent="1" vertex="1">
          <mxGeometry x="921.5" y="534.09" width="99" height="45.91" as="geometry" />
        </mxCell>
        <mxCell id="EVIfJQRESA6GnYVss3oP-46" style="edgeStyle=orthogonalEdgeStyle;rounded=0;orthogonalLoop=1;jettySize=auto;html=1;exitX=0;exitY=0.5;exitDx=0;exitDy=0;entryX=1;entryY=0.5;entryDx=0;entryDy=0;endSize=12;endArrow=open;endFill=0;fillColor=#f8cecc;strokeColor=#b85450;" parent="1" source="EVIfJQRESA6GnYVss3oP-43" target="_RIdNQpKpIPFGBzSEn9j-4" edge="1">
          <mxGeometry relative="1" as="geometry">
            <Array as="points">
              <mxPoint x="890" y="453" />
              <mxPoint x="870" y="453" />
              <mxPoint x="870" y="400" />
              <mxPoint x="510" y="400" />
              <mxPoint x="510" y="303" />
            </Array>
          </mxGeometry>
        </mxCell>
        <mxCell id="EVIfJQRESA6GnYVss3oP-43" value="&lt;p style=&quot;margin:0px;margin-top:4px;text-align:center;&quot;&gt;&lt;b&gt;PileOfBonesReviveAction&lt;/b&gt;&lt;br&gt;&lt;/p&gt;&lt;hr size=&quot;1&quot;&gt;" style="verticalAlign=top;align=left;overflow=fill;fontSize=12;fontFamily=Helvetica;html=1;whiteSpace=wrap;" parent="1" vertex="1">
          <mxGeometry x="890" y="440" width="162" height="50" as="geometry" />
        </mxCell>
        <mxCell id="EVIfJQRESA6GnYVss3oP-44" style="edgeStyle=orthogonalEdgeStyle;rounded=0;orthogonalLoop=1;jettySize=auto;html=1;exitX=0.5;exitY=0;exitDx=0;exitDy=0;endArrow=block;endFill=0;endSize=12;entryX=0.5;entryY=1;entryDx=0;entryDy=0;" parent="1" source="EVIfJQRESA6GnYVss3oP-43" target="_RIdNQpKpIPFGBzSEn9j-142" edge="1">
          <mxGeometry relative="1" as="geometry">
            <mxPoint x="800" y="450" as="sourcePoint" />
            <mxPoint x="882" y="355" as="targetPoint" />
            <Array as="points">
              <mxPoint x="971" y="370" />
              <mxPoint x="971" y="370" />
            </Array>
          </mxGeometry>
        </mxCell>
        <mxCell id="EVIfJQRESA6GnYVss3oP-48" value="1" style="text;html=1;strokeColor=none;fillColor=none;align=center;verticalAlign=middle;whiteSpace=wrap;rounded=0;fontColor=#EA6B66;" parent="1" vertex="1">
          <mxGeometry x="390" y="300.1" width="60" height="30" as="geometry" />
        </mxCell>
        <mxCell id="EVIfJQRESA6GnYVss3oP-50" value="1" style="text;html=1;strokeColor=none;fillColor=none;align=center;verticalAlign=middle;whiteSpace=wrap;rounded=0;fontColor=#EA6B66;" parent="1" vertex="1">
          <mxGeometry x="850" y="454" width="60" height="30" as="geometry" />
        </mxCell>
        <mxCell id="EVIfJQRESA6GnYVss3oP-51" value="revives" style="text;html=1;strokeColor=none;fillColor=none;align=center;verticalAlign=middle;whiteSpace=wrap;rounded=0;fontColor=#EA6B66;" parent="1" vertex="1">
          <mxGeometry x="665" y="371.86" width="60" height="30" as="geometry" />
        </mxCell>
        <mxCell id="YhBXY4sOzTCuOieTcm3O-8" value="&lt;div&gt;actors&lt;/div&gt;" style="text;html=1;strokeColor=none;fillColor=none;align=center;verticalAlign=middle;whiteSpace=wrap;rounded=0;" vertex="1" parent="1">
          <mxGeometry x="37.370000000000005" y="607.23" width="47.83" height="12.29" as="geometry" />
        </mxCell>
        <mxCell id="YhBXY4sOzTCuOieTcm3O-10" value="&lt;div&gt;enemies&lt;/div&gt;" style="text;html=1;strokeColor=none;fillColor=none;align=center;verticalAlign=middle;whiteSpace=wrap;rounded=0;" vertex="1" parent="1">
          <mxGeometry x="52" y="632.82" width="47.83" height="12.29" as="geometry" />
        </mxCell>
        <mxCell id="YhBXY4sOzTCuOieTcm3O-14" value="" style="shape=folder;fontStyle=1;spacingTop=10;tabWidth=112;tabHeight=20;tabPosition=left;html=1;whiteSpace=wrap;" vertex="1" parent="1">
          <mxGeometry x="60" y="750" width="150" height="160" as="geometry" />
        </mxCell>
        <mxCell id="YhBXY4sOzTCuOieTcm3O-15" value="CrustaceanEnemy" style="text;html=1;strokeColor=none;fillColor=none;align=center;verticalAlign=middle;whiteSpace=wrap;rounded=0;" vertex="1" parent="1">
          <mxGeometry x="92.09" y="753" width="47.83" height="12.29" as="geometry" />
        </mxCell>
        <mxCell id="_RIdNQpKpIPFGBzSEn9j-29" value="&lt;p style=&quot;margin:0px;margin-top:4px;text-align:center;&quot;&gt;&lt;b&gt;GiantCrab&lt;/b&gt;&lt;/p&gt;&lt;hr size=&quot;1&quot;&gt;&lt;div&gt;&lt;br&gt;&lt;/div&gt;" style="verticalAlign=top;align=left;overflow=fill;fontSize=12;fontFamily=Helvetica;html=1;whiteSpace=wrap;" parent="1" vertex="1">
          <mxGeometry x="96.55000000000001" y="858.69" width="81.3" height="31.32" as="geometry" />
        </mxCell>
        <mxCell id="EVIfJQRESA6GnYVss3oP-25" value="&lt;p style=&quot;margin:0px;margin-top:4px;text-align:center;&quot;&gt;&lt;b&gt;&amp;lt;&amp;lt;abstract&amp;gt;&amp;gt;&lt;/b&gt;&lt;/p&gt;&lt;p style=&quot;margin:0px;margin-top:4px;text-align:center;&quot;&gt;&lt;b&gt;CrustaceanEnemy&lt;br&gt;&lt;/b&gt;&lt;/p&gt;&lt;hr size=&quot;1&quot;&gt;" style="verticalAlign=top;align=left;overflow=fill;fontSize=12;fontFamily=Helvetica;html=1;whiteSpace=wrap;" parent="1" vertex="1">
          <mxGeometry x="72.3" y="780" width="129.8" height="43.1" as="geometry" />
        </mxCell>
        <mxCell id="_RIdNQpKpIPFGBzSEn9j-89" style="rounded=0;orthogonalLoop=1;jettySize=auto;html=1;entryX=0.5;entryY=1;entryDx=0;entryDy=0;elbow=vertical;endArrow=open;endFill=0;endSize=12;fillColor=#f8cecc;strokeColor=#b85450;edgeStyle=orthogonalEdgeStyle;exitX=0.25;exitY=0;exitDx=0;exitDy=0;" parent="1" source="_RIdNQpKpIPFGBzSEn9j-3" target="_RIdNQpKpIPFGBzSEn9j-86" edge="1">
          <mxGeometry relative="1" as="geometry">
            <mxPoint x="128" y="570.0000000000001" as="targetPoint" />
            <Array as="points">
              <mxPoint x="277" y="830" />
              <mxPoint x="220" y="830" />
              <mxPoint x="220" y="710" />
              <mxPoint x="131" y="710" />
            </Array>
            <mxPoint x="260" y="860" as="sourcePoint" />
          </mxGeometry>
        </mxCell>
        <mxCell id="EVIfJQRESA6GnYVss3oP-31" style="edgeStyle=orthogonalEdgeStyle;rounded=0;orthogonalLoop=1;jettySize=auto;html=1;exitX=0.5;exitY=0;exitDx=0;exitDy=0;entryX=0.5;entryY=0;entryDx=0;entryDy=0;endArrow=none;endFill=0;" parent="1" source="EVIfJQRESA6GnYVss3oP-22" target="EVIfJQRESA6GnYVss3oP-25" edge="1">
          <mxGeometry relative="1" as="geometry">
            <Array as="points">
              <mxPoint x="497" y="730" />
              <mxPoint x="137" y="730" />
            </Array>
          </mxGeometry>
        </mxCell>
        <mxCell id="_RIdNQpKpIPFGBzSEn9j-155" style="rounded=0;orthogonalLoop=1;jettySize=auto;html=1;exitX=0.75;exitY=1;exitDx=0;exitDy=0;endSize=12;endArrow=open;endFill=0;fillColor=#dae8fc;strokeColor=#6c8ebf;edgeStyle=orthogonalEdgeStyle;dashed=1;entryX=0;entryY=0.75;entryDx=0;entryDy=0;" parent="1" source="EVIfJQRESA6GnYVss3oP-25" target="EVIfJQRESA6GnYVss3oP-7" edge="1">
          <mxGeometry relative="1" as="geometry">
            <Array as="points">
              <mxPoint x="170" y="840" />
              <mxPoint x="690" y="840" />
              <mxPoint x="690" y="870" />
              <mxPoint x="870" y="870" />
            </Array>
            <mxPoint x="700" y="790" as="targetPoint" />
          </mxGeometry>
        </mxCell>
        <mxCell id="EVIfJQRESA6GnYVss3oP-28" value="" style="endArrow=block;endSize=12;endFill=0;html=1;rounded=0;exitX=0.5;exitY=0;exitDx=0;exitDy=0;entryX=0.5;entryY=1;entryDx=0;entryDy=0;" parent="1" source="_RIdNQpKpIPFGBzSEn9j-29" target="EVIfJQRESA6GnYVss3oP-25" edge="1">
          <mxGeometry width="160" relative="1" as="geometry">
            <mxPoint x="127.31" y="740.6" as="sourcePoint" />
            <mxPoint x="127.31" y="673.6" as="targetPoint" />
          </mxGeometry>
        </mxCell>
        <mxCell id="_RIdNQpKpIPFGBzSEn9j-109" style="edgeStyle=orthogonalEdgeStyle;rounded=0;orthogonalLoop=1;jettySize=auto;html=1;exitX=0.5;exitY=0;exitDx=0;exitDy=0;entryX=0.5;entryY=1;entryDx=0;entryDy=0;endArrow=open;endFill=0;endSize=12;dashed=1;" parent="1" source="_RIdNQpKpIPFGBzSEn9j-43" target="_RIdNQpKpIPFGBzSEn9j-29" edge="1">
          <mxGeometry relative="1" as="geometry" />
        </mxCell>
        <mxCell id="YhBXY4sOzTCuOieTcm3O-26" value="SkeletalEnemy" style="text;html=1;strokeColor=none;fillColor=none;align=center;verticalAlign=middle;whiteSpace=wrap;rounded=0;" vertex="1" parent="1">
          <mxGeometry x="252.3" y="740.71" width="47.83" height="12.29" as="geometry" />
        </mxCell>
        <mxCell id="YhBXY4sOzTCuOieTcm3O-29" value="CanineEnemy" style="text;html=1;strokeColor=none;fillColor=none;align=center;verticalAlign=middle;whiteSpace=wrap;rounded=0;" vertex="1" parent="1">
          <mxGeometry x="450" y="744.62" width="47.83" height="12.29" as="geometry" />
        </mxCell>
        <mxCell id="YhBXY4sOzTCuOieTcm3O-36" value="environments" style="text;html=1;strokeColor=none;fillColor=none;align=center;verticalAlign=middle;whiteSpace=wrap;rounded=0;" vertex="1" parent="1">
          <mxGeometry x="60" y="932" width="47.83" height="12.29" as="geometry" />
        </mxCell>
        <mxCell id="YhBXY4sOzTCuOieTcm3O-39" value="actions" style="text;html=1;strokeColor=none;fillColor=none;align=center;verticalAlign=middle;whiteSpace=wrap;rounded=0;" vertex="1" parent="1">
          <mxGeometry x="674" y="402.86" width="60" height="30" as="geometry" />
        </mxCell>
        <mxCell id="YhBXY4sOzTCuOieTcm3O-42" value="" style="rounded=0;orthogonalLoop=1;jettySize=auto;html=1;exitX=1;exitY=0.5;exitDx=0;exitDy=0;elbow=vertical;endArrow=open;endFill=0;endSize=12;dashed=1;edgeStyle=orthogonalEdgeStyle;fillColor=#60a917;strokeColor=#2D7600;entryX=0;entryY=0.5;entryDx=0;entryDy=0;" edge="1" parent="1" source="EVIfJQRESA6GnYVss3oP-1" target="_6_Bct-VPP1b2jgnEAKt-15">
          <mxGeometry relative="1" as="geometry">
            <mxPoint x="170" y="490" as="sourcePoint" />
            <mxPoint x="1210" y="580" as="targetPoint" />
            <Array as="points">
              <mxPoint x="640" y="468" />
              <mxPoint x="640" y="520" />
              <mxPoint x="1070" y="520" />
              <mxPoint x="1070" y="555" />
            </Array>
          </mxGeometry>
        </mxCell>
        <mxCell id="YhBXY4sOzTCuOieTcm3O-41" value="&lt;p style=&quot;margin:0px;margin-top:4px;text-align:center;&quot;&gt;&lt;b&gt;DespawnAction&lt;/b&gt;&lt;br&gt;&lt;/p&gt;&lt;hr size=&quot;1&quot;&gt;" style="verticalAlign=top;align=left;overflow=fill;fontSize=12;fontFamily=Helvetica;html=1;whiteSpace=wrap;" vertex="1" parent="1">
          <mxGeometry x="690" y="658.2" width="130" height="45.5" as="geometry" />
        </mxCell>
        <mxCell id="YhBXY4sOzTCuOieTcm3O-48" value="behaviours" style="text;html=1;strokeColor=none;fillColor=none;align=center;verticalAlign=middle;whiteSpace=wrap;rounded=0;" vertex="1" parent="1">
          <mxGeometry x="394" y="466.09000000000003" width="60" height="30" as="geometry" />
        </mxCell>
      </root>
    </mxGraphModel>
  </diagram>
</mxfile>
